<?xml version="1.0" encoding="UTF-8"?><svg id="Layer_2" xmlns="http://www.w3.org/2000/svg" viewBox="0 0 60 60"><defs><style>.cls-1{fill:#1c3664;}.cls-2{fill:none;}</style></defs><g id="address_book_regular"><path class="cls-1" d="M30,33.44h-6.88c-4.75,0-8.59,3.85-8.59,8.59,0,.95,.77,1.72,1.72,1.72h20.62c.95,0,1.72-.77,1.72-1.72,0-4.75-3.85-8.59-8.59-8.59Zm-3.44-3.44c3.8,0,6.88-3.08,6.88-6.88s-3.08-6.88-6.88-6.88-6.88,3.08-6.88,6.88,3.08,6.88,6.88,6.88Zm27.5,6.88h-1.72v10.31h1.72c.95,0,1.72-.77,1.72-1.72v-6.88c0-.95-.77-1.72-1.72-1.72Zm0-27.5h-1.72v10.31h1.72c.95,0,1.72-.77,1.72-1.72v-6.88c0-.95-.77-1.72-1.72-1.72Zm0,13.75h-1.72v10.31h1.72c.95,0,1.72-.77,1.72-1.72v-6.88c0-.95-.77-1.72-1.72-1.72ZM42.03,2.5H11.09c-3.8,0-6.88,3.08-6.88,6.88V50.62c0,3.8,3.08,6.88,6.88,6.88h30.94c3.8,0,6.87-3.08,6.87-6.88V9.38c0-3.8-3.08-6.88-6.87-6.88Zm1.72,48.12c0,.95-.77,1.72-1.72,1.72H11.09c-.95,0-1.72-.77-1.72-1.72V9.38c0-.95,.77-1.72,1.72-1.72h30.94c.95,0,1.72,.77,1.72,1.72V50.62Z"/><rect class="cls-2" width="60" height="60"/></g></svg>