<?xml version="1.0" encoding="UTF-8"?><svg id="Layer_2" xmlns="http://www.w3.org/2000/svg" viewBox="0 0 60 60"><defs><style>.cls-1{fill:#1c3664;}.cls-2{fill:none;}</style></defs><g id="course_outlines"><path class="cls-1" d="M31.57,6.99c-.95-.63-2.18-.63-3.13,0l-12.24,8.16-11.06,2.46c-1.94,.43-3.31,2.14-3.31,4.12v25.64c0,2.33,1.89,4.23,4.23,4.23H53.95c2.33,0,4.23-1.89,4.23-4.23V21.73c0-1.98-1.37-3.7-3.31-4.13l-11.06-2.45L31.57,6.99Zm-7.2,36.15c0-3.11,2.53-5.63,5.63-5.63s5.63,2.53,5.63,5.63v8.45h-11.27v-8.45ZM10.28,23.42h2.82c.77,0,1.41,.63,1.41,1.41v5.63c0,.77-.63,1.41-1.41,1.41h-2.82c-.77,0-1.41-.63-1.41-1.41v-5.63c0-.77,.63-1.41,1.41-1.41Zm35.22,1.41c0-.77,.63-1.41,1.41-1.41h2.82c.77,0,1.41,.63,1.41,1.41v5.63c0,.77-.63,1.41-1.41,1.41h-2.82c-.77,0-1.41-.63-1.41-1.41v-5.63ZM10.28,34.69h2.82c.77,0,1.41,.63,1.41,1.41v5.63c0,.77-.63,1.41-1.41,1.41h-2.82c-.77,0-1.41-.63-1.41-1.41v-5.63c0-.77,.63-1.41,1.41-1.41Zm35.22,1.41c0-.77,.63-1.41,1.41-1.41h2.82c.77,0,1.41,.63,1.41,1.41v5.63c0,.77-.63,1.41-1.41,1.41h-2.82c-.77,0-1.41-.63-1.41-1.41v-5.63Zm-7.75-14.09c0,4.28-3.47,7.75-7.75,7.75s-7.75-3.47-7.75-7.75,3.47-7.75,7.75-7.75,7.75,3.47,7.75,7.75Zm-7.75-4.23c-.77,0-1.41,.63-1.41,1.41v2.82c0,.77,.63,1.41,1.41,1.41h2.82c.77,0,1.41-.63,1.41-1.41s-.63-1.41-1.41-1.41h-1.41v-1.41c0-.77-.63-1.41-1.41-1.41Z"/><rect class="cls-2" width="60" height="60"/></g></svg>