<?xml version="1.0" encoding="UTF-8"?><svg id="Layer_2" xmlns="http://www.w3.org/2000/svg" viewBox="0 0 60 60"><defs><style>.cls-1{fill:#1c3664;}.cls-2{fill:none;}</style></defs><g id="Cultural_2"><g><g><path class="cls-1" d="M34.66,10.61v2.85c0,.57-.46,1.02-1.02,1.02h-7.33c-.57,0-1.02-.45-1.02-1.02v-2.85c0-1.19,.59-2.26,1.5-2.92,.89,.69,2,1.09,3.19,1.09s2.3-.4,3.19-1.09c.91,.66,1.5,1.72,1.5,2.92Z"/><path class="cls-1" d="M33.15,3.48c0,1.75-1.43,3.18-3.18,3.18s-3.18-1.43-3.18-3.18,1.43-3.18,3.18-3.18,3.18,1.43,3.18,3.18Z"/></g><g><path class="cls-1" d="M19.58,12.98l2.02,2.02c.4,.4,.4,1.05,0,1.45l-5.19,5.19c-.4,.4-1.05,.4-1.45,0l-2.02-2.02c-.84-.84-1.18-2.02-1-3.12,1.11-.14,2.18-.64,3.03-1.49s1.34-1.91,1.49-3.03c1.11-.18,2.28,.16,3.12,1Z"/><path class="cls-1" d="M13.47,9.01c1.24,1.24,1.24,3.26,0,4.5s-3.26,1.24-4.5,0-1.24-3.26,0-4.5,3.26-1.24,4.5,0Z"/></g><g><path class="cls-1" d="M10.59,25.33h2.85c.57,0,1.02,.46,1.02,1.02v7.33c0,.57-.45,1.02-1.02,1.02h-2.85c-1.19,0-2.26-.59-2.92-1.5,.69-.89,1.09-2,1.09-3.19s-.4-2.3-1.09-3.19c.66-.91,1.72-1.5,2.92-1.5Z"/><path class="cls-1" d="M3.47,26.84c1.75,0,3.18,1.43,3.18,3.18s-1.43,3.18-3.18,3.18-3.18-1.43-3.18-3.18,1.43-3.18,3.18-3.18Z"/></g><g><path class="cls-1" d="M12.97,40.41l2.02-2.02c.4-.4,1.05-.4,1.45,0l5.19,5.19c.4,.4,.4,1.05,0,1.45l-2.02,2.02c-.84,.84-2.02,1.18-3.12,1-.14-1.11-.64-2.18-1.49-3.03s-1.91-1.34-3.03-1.49c-.18-1.11,.16-2.28,1-3.12Z"/><path class="cls-1" d="M9,46.51c1.24-1.24,3.26-1.24,4.5,0s1.24,3.26,0,4.5-3.26,1.24-4.5,0-1.24-3.26,0-4.5Z"/></g><g><path class="cls-1" d="M25.31,49.39v-2.85c0-.57,.46-1.02,1.02-1.02h7.33c.57,0,1.02,.45,1.02,1.02v2.85c0,1.19-.59,2.26-1.5,2.92-.89-.69-2-1.09-3.19-1.09s-2.3,.4-3.19,1.09c-.91-.66-1.5-1.72-1.5-2.92Z"/><path class="cls-1" d="M26.82,56.52c0-1.75,1.43-3.18,3.18-3.18s3.18,1.43,3.18,3.18-1.43,3.18-3.18,3.18-3.18-1.43-3.18-3.18Z"/></g><g><path class="cls-1" d="M40.39,47.02l-2.02-2.02c-.4-.4-.4-1.05,0-1.45l5.19-5.19c.4-.4,1.05-.4,1.45,0l2.02,2.02c.84,.84,1.18,2.02,1,3.12-1.11,.14-2.18,.64-3.03,1.49s-1.34,1.91-1.49,3.03c-1.11,.18-2.28-.16-3.12-1Z"/><path class="cls-1" d="M46.5,50.99c-1.24-1.24-1.24-3.26,0-4.5s3.26-1.24,4.5,0,1.24,3.26,0,4.5-3.26,1.24-4.5,0Z"/></g><g><path class="cls-1" d="M49.38,34.67h-2.85c-.57,0-1.02-.46-1.02-1.02v-7.33c0-.57,.45-1.02,1.02-1.02h2.85c1.19,0,2.26,.59,2.92,1.5-.69,.89-1.09,2-1.09,3.19s.4,2.3,1.09,3.19c-.66,.91-1.72,1.5-2.92,1.5Z"/><path class="cls-1" d="M56.5,33.16c-1.75,0-3.18-1.43-3.18-3.18s1.43-3.18,3.18-3.18,3.18,1.43,3.18,3.18c0,1.75-1.43,3.18-3.18,3.18Z"/></g><g><path class="cls-1" d="M47.01,19.59l-2.02,2.02c-.4,.4-1.05,.4-1.45,0l-5.19-5.19c-.4-.4-.4-1.05,0-1.45l2.02-2.02c.84-.84,2.02-1.18,3.12-1,.14,1.11,.64,2.18,1.49,3.03s1.91,1.34,3.03,1.49c.18,1.11-.16,2.28-1,3.12Z"/><path class="cls-1" d="M50.97,13.49c-1.24,1.24-3.26,1.24-4.5,0s-1.24-3.26,0-4.5,3.26-1.24,4.5,0c1.24,1.24,1.24,3.26,0,4.5Z"/></g><path class="cls-1" d="M35.12,30.02c0,1.16-.06,2.28-.17,3.35h-9.71c-.12-1.07-.17-2.19-.17-3.35s.06-2.28,.17-3.35h9.71c.12,1.07,.17,2.19,.17,3.35Zm1.51-3.35h6.45c.28,1.07,.42,2.2,.42,3.35s-.15,2.28-.42,3.35h-6.45c.11-1.08,.17-2.2,.17-3.35s-.06-2.27-.17-3.35Zm5.9-1.68h-6.12c-.52-3.35-1.56-6.15-2.9-7.94,4.1,1.08,7.44,4.06,9.01,7.94h0Zm-7.81,0h-9.25c.32-1.91,.81-3.59,1.41-4.96,.55-1.24,1.16-2.13,1.76-2.7,.59-.56,1.07-.72,1.46-.72s.87,.17,1.46,.72c.59,.57,1.21,1.46,1.76,2.7,.61,1.36,1.1,3.05,1.41,4.96Zm-10.95,0h-6.12c1.57-3.88,4.9-6.86,9.01-7.94-1.34,1.79-2.37,4.6-2.9,7.94h0Zm-6.67,1.68h6.45c-.11,1.08-.17,2.2-.17,3.35s.06,2.27,.17,3.35h-6.45c-.28-1.07-.42-2.2-.42-3.35s.15-2.28,.42-3.35Zm9.78,13.34c-.61-1.36-1.1-3.05-1.41-4.96h9.25c-.32,1.91-.81,3.59-1.41,4.96-.55,1.24-1.16,2.13-1.76,2.7-.59,.56-1.07,.73-1.46,.73s-.87-.17-1.46-.72c-.59-.57-1.21-1.46-1.76-2.7h0Zm-3.11-4.96c.52,3.35,1.56,6.15,2.9,7.94-4.11-1.08-7.44-4.06-9.01-7.94h6.12Zm18.76,0c-1.57,3.88-4.9,6.86-9.01,7.94,1.34-1.79,2.37-4.6,2.9-7.94h6.11Z"/></g><rect class="cls-2" width="60" height="60"/></g></svg>