<?xml version="1.0" encoding="UTF-8"?><svg id="Layer_2" xmlns="http://www.w3.org/2000/svg" viewBox="0 0 60 60"><defs><style>.cls-1{fill:#1c3664;}.cls-2{fill:none;}</style></defs><g id="Cultural"><g><g><path class="cls-1" d="M34.44,11.19v2.56c0,.51-.42,.92-.92,.92h-6.57c-.51,0-.92-.41-.92-.92v-2.56c0-1.07,.53-2.03,1.35-2.61,.8,.62,1.79,.98,2.86,.98s2.07-.36,2.86-.98c.81,.59,1.35,1.54,1.35,2.61Z"/><path class="cls-1" d="M33.08,4.8c0,1.57-1.28,2.85-2.85,2.85s-2.85-1.28-2.85-2.85,1.28-2.85,2.85-2.85,2.85,1.28,2.85,2.85Z"/></g><g><path class="cls-1" d="M19.74,13.6l1.81,1.81c.36,.36,.35,.94,0,1.3l-4.65,4.65c-.36,.36-.94,.36-1.3,0l-1.81-1.81c-.76-.76-1.06-1.81-.9-2.8,1-.13,1.96-.58,2.71-1.33s1.21-1.71,1.33-2.71c.99-.16,2.04,.14,2.8,.9Z"/><path class="cls-1" d="M14.26,10.05c1.11,1.11,1.11,2.92,0,4.03s-2.92,1.11-4.03,0-1.11-2.92,0-4.03,2.92-1.11,4.03,0Z"/></g><g><path class="cls-1" d="M11.05,25.7h2.56c.51,0,.92,.42,.92,.92v6.57c0,.51-.41,.92-.92,.92h-2.56c-1.07,0-2.03-.53-2.61-1.35,.62-.8,.98-1.79,.98-2.86s-.36-2.07-.98-2.86c.59-.81,1.54-1.35,2.61-1.35Z"/><path class="cls-1" d="M4.66,27.06c1.57,0,2.85,1.28,2.85,2.85s-1.28,2.85-2.85,2.85-2.85-1.28-2.85-2.85,1.28-2.85,2.85-2.85Z"/></g><g><path class="cls-1" d="M13.46,40.41l1.81-1.81c.36-.36,.94-.35,1.3,0l4.65,4.65c.36,.36,.36,.94,0,1.3l-1.81,1.81c-.76,.76-1.81,1.06-2.8,.9-.13-1-.58-1.96-1.33-2.71s-1.71-1.21-2.71-1.33c-.16-.99,.14-2.04,.9-2.8Z"/><path class="cls-1" d="M9.9,45.88c1.11-1.11,2.92-1.11,4.03,0s1.11,2.92,0,4.03-2.92,1.11-4.03,0-1.11-2.92,0-4.03Z"/></g><g><path class="cls-1" d="M25.56,49.09v-2.56c0-.51,.42-.92,.92-.92h6.57c.51,0,.92,.41,.92,.92v2.56c0,1.07-.53,2.03-1.35,2.61-.8-.62-1.79-.98-2.86-.98s-2.07,.36-2.86,.98c-.81-.59-1.35-1.54-1.35-2.61Z"/><path class="cls-1" d="M26.92,55.48c0-1.57,1.28-2.85,2.85-2.85s2.85,1.28,2.85,2.85c0,1.57-1.28,2.85-2.85,2.85s-2.85-1.28-2.85-2.85Z"/></g><g><path class="cls-1" d="M40.26,46.68l-1.81-1.81c-.36-.36-.35-.94,0-1.3l4.65-4.65c.36-.36,.94-.36,1.3,0l1.81,1.81c.76,.76,1.06,1.81,.9,2.8-1,.13-1.96,.58-2.71,1.33s-1.21,1.71-1.33,2.71c-.99,.16-2.04-.14-2.8-.9Z"/><path class="cls-1" d="M45.74,50.24c-1.11-1.11-1.11-2.92,0-4.03s2.92-1.11,4.03,0c1.11,1.11,1.11,2.92,0,4.03s-2.92,1.11-4.03,0Z"/></g><g><path class="cls-1" d="M48.95,34.58h-2.56c-.51,0-.92-.42-.92-.92v-6.57c0-.51,.41-.92,.92-.92h2.56c1.07,0,2.03,.53,2.61,1.35-.62,.8-.98,1.79-.98,2.86s.36,2.07,.98,2.86c-.59,.81-1.54,1.35-2.61,1.35Z"/><path class="cls-1" d="M55.34,33.22c-1.57,0-2.85-1.28-2.85-2.85s1.28-2.85,2.85-2.85c1.57,0,2.85,1.28,2.85,2.85s-1.28,2.85-2.85,2.85Z"/></g><g><path class="cls-1" d="M46.54,19.88l-1.81,1.81c-.36,.36-.94,.35-1.3,0l-4.65-4.65c-.36-.36-.36-.94,0-1.3l1.81-1.81c.76-.76,1.81-1.06,2.8-.9,.13,1,.58,1.96,1.33,2.71s1.71,1.21,2.71,1.33c.16,.99-.14,2.04-.9,2.8Z"/><path class="cls-1" d="M50.1,14.4c-1.11,1.11-2.92,1.11-4.03,0s-1.11-2.92,0-4.03c1.11-1.11,2.92-1.11,4.03,0s1.11,2.92,0,4.03Z"/></g><path class="cls-1" d="M34.48,30.14c0,1.09-.06,2.15-.16,3.15h-9.12c-.11-1-.16-2.06-.16-3.15s.06-2.15,.16-3.15h9.12c.11,1,.16,2.06,.16,3.15Zm1.42-3.15h6.06c.26,1.01,.4,2.06,.4,3.15s-.14,2.14-.4,3.15h-6.06c.1-1.01,.16-2.07,.16-3.15s-.05-2.14-.16-3.15Zm5.54-1.57h-5.74c-.49-3.14-1.47-5.78-2.72-7.46,3.85,1.02,6.99,3.81,8.46,7.46h0Zm-7.34,0h-8.69c.3-1.79,.76-3.38,1.33-4.66,.52-1.16,1.09-2,1.65-2.53,.55-.52,1.01-.68,1.37-.68s.82,.16,1.37,.68c.56,.53,1.13,1.37,1.65,2.53,.57,1.28,1.03,2.86,1.33,4.66Zm-10.29,0h-5.74c1.48-3.65,4.61-6.44,8.46-7.46-1.25,1.68-2.23,4.32-2.72,7.46h0Zm-6.26,1.57h6.06c-.1,1.01-.16,2.07-.16,3.15s.05,2.14,.16,3.15h-6.06c-.26-1.01-.4-2.06-.4-3.15s.14-2.14,.4-3.15Zm9.18,12.53c-.57-1.28-1.03-2.86-1.33-4.66h8.69c-.3,1.79-.76,3.38-1.33,4.66-.52,1.16-1.09,2-1.65,2.53-.55,.53-1.01,.68-1.37,.68s-.82-.16-1.37-.68c-.56-.53-1.13-1.37-1.65-2.53h0Zm-2.92-4.66c.49,3.14,1.47,5.78,2.72,7.46-3.86-1.02-6.99-3.81-8.46-7.46h5.74Zm17.62,0c-1.48,3.65-4.61,6.44-8.46,7.46,1.25-1.68,2.22-4.32,2.72-7.46h5.74Z"/></g><rect class="cls-2" width="60" height="60"/></g></svg>