<?xml version="1.0" encoding="UTF-8"?><svg id="Layer_2" xmlns="http://www.w3.org/2000/svg" viewBox="0 0 60 60"><defs><style>.cls-1{fill:#1c3664;}.cls-2{fill:none;}</style></defs><g id="news"><path class="cls-1" d="M52.11,5.3H18.59c-3.41,0-6.18,2.77-6.18,6.18V46.76c0,1.46-1.19,2.65-2.65,2.65s-2.65-1.19-2.65-2.65V14.12c0-1.46-1.19-2.65-2.65-2.65s-2.65,1.19-2.65,2.65V46.76c0,4.38,3.56,7.94,7.94,7.94H48.58c5.35,0,9.7-4.35,9.7-9.7V11.47c0-3.4-2.77-6.18-6.18-6.18Zm.88,39.7c0,2.43-1.98,4.41-4.41,4.41H17.25c.29-.83,.45-1.72,.45-2.65V11.47c0-.49,.4-.88,.88-.88H52.11c.49,0,.88,.4,.88,.88V45Zm-22.06-13.23h-7.06c-1.46,0-2.65,1.19-2.65,2.65s1.19,2.65,2.65,2.65h7.06c1.47,0,2.65-1.18,2.65-2.65s-1.18-2.65-2.65-2.65Zm15.88,0h-7.06c-1.46,0-2.65,1.19-2.65,2.65s1.19,2.65,2.65,2.65h7.06c1.46,0,2.65-1.19,2.65-2.65s-1.18-2.65-2.65-2.65Zm-15.88,8.82h-7.06c-1.46,0-2.65,1.19-2.65,2.65s1.19,2.65,2.65,2.65h7.06c1.46,0,2.65-1.19,2.65-2.65s-1.18-2.65-2.65-2.65Zm15.88,0h-7.06c-1.46,0-2.65,1.19-2.65,2.65s1.19,2.65,2.65,2.65h7.06c1.46,0,2.65-1.19,2.65-2.65s-1.18-2.65-2.65-2.65Zm-.88-26.47H24.76c-1.95,0-3.53,1.58-3.53,3.53v7.06c0,1.95,1.58,3.53,3.53,3.53h21.17c1.95,0,3.53-1.58,3.53-3.53v-7.06c0-1.95-1.58-3.53-3.53-3.53Z"/><rect class="cls-2" width="60" height="60"/></g></svg>