<?xml version="1.0" encoding="UTF-8"?><svg id="Layer_2" xmlns="http://www.w3.org/2000/svg" viewBox="0 0 60 60"><defs><style>.cls-1{fill:#1c3664;}.cls-2{fill:none;}</style></defs><g id="physical"><g><path class="cls-1" d="M29.99,1.78C14.34,1.78,1.64,14.48,1.64,30.15s12.7,28.36,28.36,28.36,28.37-12.7,28.37-28.36S45.66,1.78,29.99,1.78Zm0,51.43c-12.72,0-23.06-10.34-23.06-23.06S17.27,7.08,29.99,7.08s23.07,10.35,23.07,23.07-10.35,23.06-23.07,23.06Z"/><path class="cls-1" d="M34.88,23.3c-.25,.89-.24,1.74,.03,2.61,.78,2.49,3.41,4.38,5.64,4.05,.58-.09,1.03-.24,1.59-.52,1.98-1.02,3.35-3.22,3.21-5.15-.1-1.43-1.32-4.18-3.49-7.86-.32-.55-1.16-1.88-1.58-2.56-.12-.19-.4-.18-.51,.01-.96,1.66-4.4,7.67-4.89,9.43Z"/><path class="cls-1" d="M40.14,35.16c-2.24,0-4.14,1.47-4.78,3.49,.96-.48,2.04-.76,3.19-.76h2.51c.25,0,.46,.21,.46,.46s-.21,.46-.46,.46h-2.51c-.47,0-.93,.05-1.38,.15-.74,.17-1.42,.47-2.04,.88h0c-1.65,1.1-2.75,2.99-2.75,5.13v.46c0,.38,.31,.68,.68,.68s.68-.31,.68-.68v-.46c0-1.39,.59-2.64,1.53-3.51,.56,2.15,2.52,3.74,4.85,3.74h.03c3.77-.02,6.82-3.73,6.82-8.31,0-1.21-.21-2.37-.6-3.41-.07-.2-.36-.19-.46,0-.54,1-1.6,1.69-2.81,1.69h-2.97Z"/><path class="cls-1" d="M19.86,31.3l.53-.7c.13-.18,.34-.28,.56-.28,.39,0,.7,.32,.7,.7v.73c0,.43,.18,.85,.49,1.15l2.8,2.67c1.61,1.54,2.52,3.67,2.52,5.9,0,3.18-2.57,5.75-5.75,5.75h-.58c-3.5,0-6.34-2.84-6.34-6.34v-.13c0-1.61,.64-3.15,1.78-4.29l.12-.12c.14-.14,.33-.22,.53-.22,.41,0,.75,.33,.75,.75v2.95c0,1.16,.95,2.11,2.11,2.11s2.11-.95,2.11-2.11v-.13c0-.59-.24-1.16-.66-1.58l-1.27-1.27c-.79-.79-1.24-1.87-1.24-2.99,0-.91,.3-1.81,.84-2.54Z"/><path class="cls-1" d="M13.17,21.51c0,2.13,1.73,3.86,3.86,3.86h9.85c1.89,0,3.43-1.53,3.43-3.43,0-1.66-1.18-3.04-2.74-3.36,.11-.29,.17-.6,.17-.93,0-1.42-1.15-2.57-2.57-2.57-.53,0-1.02,.16-1.43,.43-.74-1.29-2.13-2.15-3.71-2.15-2.37,0-4.28,1.92-4.28,4.28,0,.07,0,.14,0,.22-1.5,.53-2.58,1.96-2.58,3.64Z"/></g><rect class="cls-2" width="60" height="60"/></g></svg>