<?xml version="1.0" encoding="UTF-8"?><svg id="Layer_2" xmlns="http://www.w3.org/2000/svg" viewBox="0 0 60 60"><defs><style>.cls-1{fill:#1c3664;}.cls-2{fill:none;}</style></defs><g id="satellite"><path class="cls-1" d="M27.51,3.68c-1.01-1.01-2.64-1.01-3.64,0L13.54,14c-1.01,1.01-1.01,2.64,0,3.64l9.61,9.61-1.67,1.67c-2.66-1.23-5.6-1.91-8.71-1.91-3.41,0-6.61,.83-9.44,2.28-.97,.51-1.11,1.8-.33,2.56l11.57,11.58-1.76,1.76c-.28-.08-.58-.12-.89-.12-1.9,0-3.44,1.54-3.44,3.44s1.54,3.44,3.44,3.44,3.44-1.54,3.44-3.44c0-.31-.04-.6-.12-.89l1.76-1.76,11.57,11.57c.77,.77,2.06,.63,2.56-.33,1.46-2.83,2.29-6.03,2.29-9.44,0-3.11-.69-6.05-1.91-8.7l1.67-1.67,9.6,9.61c1.01,1.01,2.64,1.01,3.64,0l10.32-10.32c1.01-1.01,1.01-2.64,0-3.64l-9.61-9.61,5.91-5.91c1.34-1.34,1.34-3.53,0-4.87l-5.16-5.16c-1.34-1.34-3.53-1.34-4.87,0l-5.91,5.91L27.51,3.68Zm17.09,37.74l-7.78-7.78,6.68-6.68,7.78,7.79-6.68,6.68h0ZM26.78,23.61l-7.78-7.78,6.68-6.68,7.78,7.78-6.68,6.68h0Z"/><rect class="cls-2" width="60" height="60"/></g></svg>