<?xml version="1.0" encoding="UTF-8"?><svg id="Layer_2" xmlns="http://www.w3.org/2000/svg" viewBox="0 0 60 60"><defs><style>.cls-1{fill:#1c3664;}.cls-2{fill:none;}</style></defs><g id="world_and_regional"><path class="cls-1" d="M40.31,30c0,2.38-.13,4.68-.35,6.88H20.04c-.24-2.19-.35-4.49-.35-6.88s.13-4.68,.35-6.88h19.92c.24,2.19,.35,4.49,.35,6.88Zm3.09-6.88h13.22c.57,2.2,.87,4.5,.87,6.88s-.3,4.67-.87,6.88h-13.22c.23-2.21,.34-4.51,.34-6.88s-.12-4.66-.34-6.88Zm12.1-3.44h-12.54c-.97-6.19-2.8-11.48-5.15-15.15-.26-.4,.13-.88,.58-.74,7.78,2.5,14.06,8.36,17.1,15.88h.01Zm-16.02,0H20.51c.66-3.91,1.67-7.37,2.9-10.17,1.13-2.54,2.38-4.37,3.6-5.53,1.2-1.14,2.2-1.48,2.99-1.48s1.78,.34,2.99,1.48c1.21,1.16,2.47,3,3.6,5.53,1.25,2.79,2.26,6.25,2.9,10.17Zm-22.45,0H4.5C7.54,12.16,13.82,6.3,21.61,3.8c.45-.14,.84,.34,.58,.74-2.36,3.67-4.19,8.96-5.15,15.15h0Zm-13.66,3.44h13.22c-.23,2.21-.34,4.51-.34,6.88s.12,4.66,.34,6.88H3.37c-.57-2.2-.87-4.5-.87-6.88s.3-4.67,.87-6.88Zm20.04,27.35c-1.25-2.79-2.25-6.25-2.9-10.16h18.97c-.66,3.91-1.67,7.37-2.9,10.16-1.13,2.54-2.38,4.37-3.6,5.53-1.2,1.15-2.2,1.49-2.99,1.49s-1.78-.34-2.99-1.48c-1.21-1.16-2.47-3-3.6-5.53h0Zm-6.38-10.17c.97,6.19,2.8,11.48,5.16,15.15,.26,.4-.13,.88-.58,.74-7.79-2.5-14.06-8.36-17.11-15.89h12.54Zm38.47,0c-3.05,7.52-9.32,13.39-17.1,15.88-.45,.14-.84-.34-.58-.74,2.36-3.67,4.18-8.96,5.16-15.15h12.53Z"/><rect class="cls-2" width="60" height="60"/></g></svg>